<svg role="img" viewBox="0 0 24 24" xmlns="http://www.w3.org/2000/svg"><title>GitHub</title><path fill="#AAB4BD" d="M12 .5C5.65.5.5 5.65.5 12c0 5.09 3.29 9.39 7.86 10.91.58.1.79-.25.79-.56v-2.15c-3.2.7-3.87-1.36-3.87-1.36-.52-1.33-1.28-1.68-1.28-1.68-1.04-.71.08-.7.08-.7 1.15.08 1.76 1.18 1.76 1.18 1.03 1.75 2.69 1.25 3.34.95.1-.74.4-1.25.73-1.54-2.55-.29-5.24-1.28-5.24-5.69 0-1.26.45-2.28 1.18-3.08-.12-.29-.51-1.46.11-3.04 0 0 .96-.31 3.16 1.18.92-.25 1.9-.38 2.88-.39.98.01 1.96.14 2.88.39 2.19-1.49 3.16-1.18 3.16-1.18.62 1.58.23 2.75.11 3.04.74.8 1.18 1.82 1.18 3.08 0 4.42-2.69 5.39-5.25 5.68.41.36.78 1.06.78 2.14v3.17c0 .31.21.67.79.56A11.51 11.51 0 0 0 23.5 12C23.5 5.65 18.35.5 12 .5Z"/></svg>
